<svg xmlns="http://www.w3.org/2000/svg"
 viewBox="-42.0 -82.0 44.0 84.0"
>
<polyline
 fill="none" stroke="green" stroke-width="0.25%"
 points="
  0.000000,  0.000000
  0.000000, -1.000000
  0.000000, -1.000000
 -1.000000, -1.000000
 -1.000000, -1.000000
 -1.000000, -2.000000
 -1.000000, -2.000000
  0.000000, -2.000000
  0.000000, -2.000000
  0.000000, -3.000000
  0.000000, -3.000000
 -1.000000, -3.000000
 -1.000000, -3.000000
 -1.000000, -2.000000
 -1.000000, -2.000000
 -2.000000, -2.000000
 -2.000000, -2.000000
 -2.000000, -3.000000
 -2.000000, -3.000000
 -3.000000, -3.000000
 -3.000000, -3.000000
 -3.000000, -4.000000
 -3.000000, -4.000000
 -4.000000, -4.000000
 -4.000000, -4.000000
 -4.000000, -5.000000
 -4.000000, -5.000000
 -3.000000, -5.000000
 -3.000000, -5.000000
 -3.000000, -6.000000
 -3.000000, -6.000000
 -2.000000, -6.000000
 -2.000000, -6.000000
 -2.000000, -7.000000
 -2.000000, -7.000000
 -1.000000, -7.000000
 -1.000000, -7.000000
 -1.000000, -6.000000
 -1.000000, -6.000000
  0.000000, -6.000000
  0.000000, -6.000000
  0.000000, -7.000000
  0.000000, -7.000000
 -1.000000, -7.000000
 -1.000000, -7.000000
 -1.000000, -8.000000
 -1.000000, -8.000000
  0.000000, -8.000000
  0.000000, -8.000000
  0.000000, -9.000000
  0.000000, -9.000000
 -1.000000, -9.000000
 -1.000000, -9.000000
 -1.000000, -8.000000
 -1.000000, -8.000000
 -2.000000, -8.000000
 -2.000000, -8.000000
 -2.000000, -9.000000
 -2.000000, -9.000000
 -3.000000, -9.000000
 -3.000000, -9.000000
 -3.000000, -8.000000
 -3.000000, -8.000000
 -2.000000, -8.000000
 -2.000000, -8.000000
 -2.000000, -7.000000
 -2.000000, -7.000000
 -3.000000, -7.000000
 -3.000000, -7.000000
 -3.000000, -6.000000
 -3.000000, -6.000000
 -4.000000, -6.000000
 -4.000000, -6.000000
 -4.000000, -5.000000
 -4.000000, -5.000000
 -5.000000, -5.000000
 -5.000000, -5.000000
 -5.000000, -6.000000
 -5.000000, -6.000000
 -6.000000, -6.000000
 -6.000000, -6.000000
 -6.000000, -7.000000
 -6.000000, -7.000000
 -7.000000, -7.000000
 -7.000000, -7.000000
 -7.000000, -8.000000
 -7.000000, -8.000000
 -6.000000, -8.000000
 -6.000000, -8.000000
 -6.000000, -9.000000
 -6.000000, -9.000000
 -7.000000, -9.000000
 -7.000000, -9.000000
 -7.000000, -8.000000
 -7.000000, -8.000000
 -8.000000, -8.000000
 -8.000000, -8.000000
 -8.000000, -9.000000
 -8.000000, -9.000000
 -9.000000, -9.000000
 -9.000000, -9.000000
 -9.000000,-10.000000
 -9.000000,-10.000000
-10.000000,-10.000000
-10.000000,-10.000000
-10.000000,-11.000000
-10.000000,-11.000000
 -9.000000,-11.000000
 -9.000000,-11.000000
 -9.000000,-12.000000
 -9.000000,-12.000000
-10.000000,-12.000000
-10.000000,-12.000000
-10.000000,-11.000000
-10.000000,-11.000000
-11.000000,-11.000000
-11.000000,-11.000000
-11.000000,-12.000000
-11.000000,-12.000000
-12.000000,-12.000000
-12.000000,-12.000000
-12.000000,-13.000000
-12.000000,-13.000000
-13.000000,-13.000000
-13.000000,-13.000000
-13.000000,-14.000000
-13.000000,-14.000000
-12.000000,-14.000000
-12.000000,-14.000000
-12.000000,-15.000000
-12.000000,-15.000000
-11.000000,-15.000000
-11.000000,-15.000000
-11.000000,-16.000000
-11.000000,-16.000000
-10.000000,-16.000000
-10.000000,-16.000000
-10.000000,-15.000000
-10.000000,-15.000000
 -9.000000,-15.000000
 -9.000000,-15.000000
 -9.000000,-16.000000
 -9.000000,-16.000000
-10.000000,-16.000000
-10.000000,-16.000000
-10.000000,-17.000000
-10.000000,-17.000000
 -9.000000,-17.000000
 -9.000000,-17.000000
 -9.000000,-18.000000
 -9.000000,-18.000000
 -8.000000,-18.000000
 -8.000000,-18.000000
 -8.000000,-19.000000
 -8.000000,-19.000000
 -7.000000,-19.000000
 -7.000000,-19.000000
 -7.000000,-18.000000
 -7.000000,-18.000000
 -6.000000,-18.000000
 -6.000000,-18.000000
 -6.000000,-19.000000
 -6.000000,-19.000000
 -7.000000,-19.000000
 -7.000000,-19.000000
 -7.000000,-20.000000
 -7.000000,-20.000000
 -6.000000,-20.000000
 -6.000000,-20.000000
 -6.000000,-21.000000
 -6.000000,-21.000000
 -5.000000,-21.000000
 -5.000000,-21.000000
 -5.000000,-22.000000
 -5.000000,-22.000000
 -4.000000,-22.000000
 -4.000000,-22.000000
 -4.000000,-21.000000
 -4.000000,-21.000000
 -3.000000,-21.000000
 -3.000000,-21.000000
 -3.000000,-20.000000
 -3.000000,-20.000000
 -2.000000,-20.000000
 -2.000000,-20.000000
 -1.999999,-19.000000
 -1.999999,-19.000000
 -3.000000,-19.000000
 -3.000000,-19.000000
 -2.999999,-18.000000
 -2.999999,-18.000000
 -1.999999,-18.000000
 -1.999999,-18.000000
 -1.999999,-19.000000
 -1.999999,-19.000000
 -0.999999,-19.000000
 -0.999999,-19.000000
 -0.999999,-18.000000
 -0.999999,-18.000000
  0.000001,-18.000000
  0.000001,-18.000000
  0.000001,-19.000000
  0.000001,-19.000000
 -0.999999,-19.000000
 -0.999999,-19.000000
 -0.999999,-20.000000
 -0.999999,-20.000000
  0.000001,-20.000000
  0.000001,-20.000000
  0.000001,-21.000000
  0.000001,-21.000000
 -0.999999,-21.000000
 -0.999999,-21.000000
 -0.999999,-20.000000
 -0.999999,-20.000000
 -1.999999,-20.000000
 -1.999999,-20.000000
 -1.999999,-21.000000
 -1.999999,-21.000000
 -2.999999,-21.000000
 -2.999999,-21.000000
 -2.999999,-22.000000
 -2.999999,-22.000000
 -3.999999,-22.000000
 -3.999999,-22.000000
 -3.999999,-23.000000
 -3.999999,-23.000000
 -2.999999,-23.000000
 -2.999999,-23.000000
 -2.999999,-24.000000
 -2.999999,-24.000000
 -1.999999,-24.000000
 -1.999999,-24.000000
 -1.999999,-25.000000
 -1.999999,-25.000000
 -0.999999,-25.000000
 -0.999999,-25.000000
 -0.999999,-24.000000
 -0.999999,-24.000000
  0.000001,-24.000000
  0.000001,-24.000000
  0.000001,-25.000000
  0.000001,-25.000000
 -0.999999,-25.000000
 -0.999999,-25.000000
 -0.999999,-26.000000
 -0.999999,-26.000000
  0.000001,-26.000000
  0.000001,-26.000000
  0.000001,-27.000000
  0.000001,-27.000000
 -0.999999,-27.000000
 -0.999999,-27.000000
 -0.999999,-26.000000
 -0.999999,-26.000000
 -1.999999,-26.000000
 -1.999999,-26.000000
 -1.999999,-27.000000
 -1.999999,-27.000000
 -2.999999,-27.000000
 -2.999999,-27.000000
 -2.999999,-26.000000
 -2.999999,-26.000000
 -1.999999,-26.000000
 -1.999999,-26.000000
 -1.999999,-25.000000
 -1.999999,-25.000000
 -2.999999,-25.000000
 -2.999999,-25.000000
 -2.999999,-24.000000
 -2.999999,-24.000000
 -3.999999,-24.000000
 -3.999999,-24.000000
 -3.999999,-23.000000
 -3.999999,-23.000000
 -4.999999,-23.000000
 -4.999999,-23.000000
 -4.999999,-24.000000
 -4.999999,-24.000000
 -5.999999,-24.000000
 -5.999999,-24.000000
 -5.999999,-25.000000
 -5.999999,-25.000000
 -6.999999,-25.000000
 -6.999999,-25.000000
 -6.999999,-26.000000
 -6.999999,-26.000000
 -5.999999,-26.000000
 -5.999999,-26.000000
 -5.999999,-27.000000
 -5.999999,-27.000000
 -6.999999,-27.000000
 -6.999999,-27.000000
 -6.999999,-26.000000
 -6.999999,-26.000000
 -7.999999,-26.000000
 -7.999999,-26.000000
 -7.999999,-27.000000
 -7.999999,-27.000000
 -8.999999,-27.000000
 -8.999999,-27.000000
 -8.999999,-26.000000
 -8.999999,-26.000000
 -7.999999,-26.000000
 -7.999999,-26.000000
 -7.999999,-25.000000
 -7.999999,-25.000000
 -8.999999,-25.000000
 -8.999999,-25.000000
 -8.999999,-24.000000
 -8.999999,-24.000000
 -7.999999,-24.000000
 -7.999999,-24.000000
 -7.999999,-25.000000
 -7.999999,-25.000000
 -6.999999,-25.000000
 -6.999999,-25.000000
 -6.999999,-24.000000
 -6.999999,-24.000000
 -5.999999,-24.000000
 -5.999999,-24.000000
 -5.999999,-23.000000
 -5.999999,-23.000000
 -4.999999,-23.000000
 -4.999999,-23.000000
 -4.999999,-22.000000
 -4.999999,-22.000000
 -5.999999,-22.000000
 -5.999999,-22.000000
 -5.999999,-21.000000
 -5.999999,-21.000000
 -6.999999,-21.000000
 -6.999999,-21.000000
 -6.999999,-20.000000
 -6.999999,-20.000000
 -7.999999,-20.000000
 -7.999999,-20.000000
 -7.999999,-21.000000
 -7.999999,-21.000000
 -8.999999,-21.000000
 -8.999999,-21.000000
 -8.999999,-20.000000
 -8.999999,-20.000000
 -7.999999,-20.000000
 -7.999999,-20.000000
 -7.999999,-19.000000
 -7.999999,-19.000000
 -8.999999,-19.000000
 -8.999999,-19.000000
 -8.999999,-18.000000
 -8.999999,-18.000000
 -9.999999,-18.000000
 -9.999999,-18.000000
 -9.999999,-17.000000
 -9.999999,-17.000000
-10.999999,-17.000000
-10.999999,-17.000000
-10.999999,-18.000000
-10.999999,-18.000000
-11.999999,-18.000000
-11.999999,-18.000000
-11.999999,-17.000000
-11.999999,-17.000000
-10.999999,-17.000000
-10.999999,-17.000000
-10.999999,-16.000000
-10.999999,-16.000000
-11.999999,-16.000000
-11.999999,-16.000000
-11.999999,-15.000000
-11.999999,-15.000000
-12.999999,-15.000000
-12.999999,-15.000000
-12.999999,-14.000000
-12.999999,-14.000000
-13.999999,-14.000000
-13.999999,-14.000000
-13.999999,-15.000000
-13.999999,-15.000000
-14.999999,-15.000000
-14.999999,-15.000000
-14.999999,-16.000000
-14.999999,-16.000000
-15.999999,-16.000000
-15.999999,-16.000000
-15.999999,-17.000000
-15.999999,-17.000000
-14.999999,-17.000000
-14.999999,-17.000000
-14.999999,-18.000000
-14.999999,-18.000000
-15.999999,-18.000000
-15.999999,-18.000000
-15.999999,-17.000000
-15.999999,-17.000000
-17.000000,-17.000000
-17.000000,-17.000000
-17.000000,-18.000000
-17.000000,-18.000000
-18.000000,-18.000000
-18.000000,-18.000000
-18.000000,-19.000000
-18.000000,-19.000000
-19.000000,-19.000000
-19.000000,-19.000000
-19.000000,-20.000000
-19.000000,-20.000000
-18.000000,-20.000000
-18.000000,-20.000000
-18.000000,-21.000000
-18.000000,-21.000000
-19.000000,-21.000000
-19.000000,-21.000000
-19.000000,-20.000000
-19.000000,-20.000000
-20.000000,-20.000000
-20.000000,-20.000000
-20.000000,-21.000000
-20.000000,-21.000000
-21.000000,-21.000000
-21.000000,-21.000000
-21.000000,-22.000000
-21.000000,-22.000000
-22.000000,-22.000000
-22.000000,-22.000000
-22.000000,-23.000000
-22.000000,-23.000000
-21.000000,-23.000000
-21.000000,-23.000000
-21.000000,-24.000000
-21.000000,-24.000000
-20.000000,-24.000000
-20.000000,-24.000000
-20.000000,-25.000000
-20.000000,-25.000000
-19.000000,-25.000000
-19.000000,-25.000000
-19.000000,-24.000000
-19.000000,-24.000000
-18.000000,-24.000000
-18.000000,-24.000000
-18.000000,-25.000000
-18.000000,-25.000000
-19.000000,-25.000000
-19.000000,-25.000000
-19.000000,-26.000000
-19.000000,-26.000000
-18.000000,-26.000000
-18.000000,-26.000000
-18.000000,-27.000000
-18.000000,-27.000000
-19.000000,-27.000000
-19.000000,-27.000000
-19.000000,-26.000000
-19.000000,-26.000000
-20.000000,-26.000000
-20.000000,-26.000000
-20.000000,-27.000000
-20.000000,-27.000000
-21.000000,-27.000000
-21.000000,-27.000000
-21.000000,-26.000000
-21.000000,-26.000000
-20.000000,-26.000000
-20.000000,-26.000000
-20.000000,-25.000000
-20.000000,-25.000000
-21.000000,-25.000000
-21.000000,-25.000000
-21.000000,-24.000000
-21.000000,-24.000000
-22.000000,-24.000000
-22.000000,-24.000000
-22.000000,-23.000000
-22.000000,-23.000000
-23.000000,-23.000000
-23.000000,-23.000000
-23.000000,-24.000000
-23.000000,-24.000000
-24.000000,-24.000000
-24.000000,-24.000000
-24.000000,-25.000000
-24.000000,-25.000000
-25.000000,-25.000000
-25.000000,-25.000000
-25.000000,-26.000000
-25.000000,-26.000000
-24.000000,-26.000000
-24.000000,-26.000000
-24.000000,-27.000000
-24.000000,-27.000000
-25.000000,-27.000000
-25.000000,-27.000000
-25.000000,-26.000000
-25.000000,-26.000000
-26.000000,-26.000000
-26.000000,-26.000000
-26.000000,-27.000000
-26.000000,-27.000000
-27.000000,-27.000000
-27.000000,-27.000000
-27.000000,-28.000000
-27.000000,-28.000000
-28.000000,-28.000000
-28.000000,-28.000000
-28.000000,-29.000000
-28.000000,-29.000000
-27.000000,-29.000000
-27.000000,-29.000000
-27.000000,-30.000000
-27.000000,-30.000000
-28.000000,-30.000000
-28.000000,-30.000000
-28.000000,-29.000000
-28.000000,-29.000000
-29.000000,-29.000000
-29.000000,-29.000000
-29.000000,-30.000000
-29.000000,-30.000000
-30.000000,-30.000000
-30.000000,-30.000000
-30.000000,-31.000000
-30.000000,-31.000000
-31.000000,-31.000000
-31.000000,-31.000000
-31.000000,-32.000000
-31.000000,-32.000000
-30.000000,-32.000000
-30.000000,-32.000000
-30.000000,-33.000000
-30.000000,-33.000000
-29.000000,-33.000000
-29.000000,-33.000000
-29.000000,-34.000000
-29.000000,-34.000000
-28.000000,-34.000000
-28.000000,-34.000000
-28.000000,-33.000000
-28.000000,-33.000000
-27.000000,-33.000000
-27.000000,-33.000000
-27.000000,-34.000000
-27.000000,-34.000000
-28.000000,-34.000000
-28.000000,-34.000000
-28.000000,-35.000000
-28.000000,-35.000000
-27.000000,-35.000000
-27.000000,-35.000000
-27.000000,-36.000000
-27.000000,-36.000000
-28.000000,-36.000000
-28.000000,-36.000000
-28.000000,-35.000000
-28.000000,-35.000000
-29.000000,-35.000000
-29.000000,-35.000000
-29.000000,-36.000000
-29.000000,-36.000000
-30.000000,-36.000000
-30.000000,-36.000000
-30.000000,-35.000000
-30.000000,-35.000000
-29.000000,-35.000000
-29.000000,-35.000000
-29.000000,-34.000000
-29.000000,-34.000000
-30.000000,-34.000000
-30.000000,-34.000000
-30.000000,-33.000000
-30.000000,-33.000000
-31.000000,-33.000000
-31.000000,-33.000000
-31.000000,-32.000000
-31.000000,-32.000000
-32.000000,-32.000000
-32.000000,-32.000000
-32.000000,-33.000000
-32.000000,-33.000000
-33.000000,-33.000000
-33.000000,-33.000000
-33.000000,-34.000000
-33.000000,-34.000000
-34.000000,-34.000000
-34.000000,-34.000000
-34.000000,-35.000000
-34.000000,-35.000000
-33.000000,-35.000000
-33.000000,-35.000000
-33.000000,-36.000000
-33.000000,-36.000000
-34.000000,-36.000000
-34.000000,-36.000000
-34.000000,-35.000000
-34.000000,-35.000000
-35.000000,-35.000000
-35.000000,-35.000000
-35.000000,-36.000000
-35.000000,-36.000000
-36.000000,-36.000000
-36.000000,-36.000000
-36.000000,-37.000000
-36.000000,-37.000000
-37.000000,-37.000000
-37.000000,-37.000000
-37.000000,-38.000000
-37.000000,-38.000000
-36.000000,-38.000000
-36.000000,-38.000000
-36.000000,-39.000000
-36.000000,-39.000000
-37.000000,-39.000000
-37.000000,-39.000000
-37.000000,-38.000000
-37.000000,-38.000000
-38.000000,-38.000000
-38.000000,-38.000000
-38.000000,-39.000000
-38.000000,-39.000000
-39.000000,-39.000000
-39.000000,-39.000000
-39.000000,-40.000000
-39.000000,-40.000000
-40.000000,-40.000000
-40.000000,-40.000000
-40.000000,-41.000000
-40.000000,-41.000000
-39.000000,-41.000000
-39.000000,-41.000000
-39.000000,-42.000000
-39.000000,-42.000000
-38.000000,-42.000000
-38.000000,-42.000000
-38.000000,-43.000000
-38.000000,-43.000000
-37.000000,-43.000000
-37.000000,-43.000000
-37.000000,-42.000000
-37.000000,-42.000000
-36.000000,-42.000000
-36.000000,-42.000000
-36.000000,-43.000000
-36.000000,-43.000000
-37.000000,-43.000000
-37.000000,-43.000000
-37.000000,-44.000000
-37.000000,-44.000000
-36.000000,-44.000000
-36.000000,-44.000000
-36.000000,-45.000000
-36.000000,-45.000000
-35.000000,-45.000000
-35.000000,-45.000000
-35.000000,-46.000000
-35.000000,-46.000000
-34.000000,-46.000000
-34.000000,-46.000000
-34.000000,-45.000000
-34.000000,-45.000000
-33.000000,-45.000000
-33.000000,-45.000000
-33.000000,-46.000000
-33.000000,-46.000000
-34.000000,-46.000000
-34.000000,-46.000000
-34.000000,-47.000000
-34.000000,-47.000000
-33.000000,-47.000000
-33.000000,-47.000000
-33.000000,-48.000000
-33.000000,-48.000000
-32.000000,-48.000000
-32.000000,-48.000000
-32.000000,-49.000000
-32.000000,-49.000000
-31.000000,-49.000000
-31.000000,-49.000000
-31.000000,-48.000000
-31.000000,-48.000000
-30.000000,-48.000000
-30.000000,-48.000000
-30.000000,-47.000000
-30.000000,-47.000000
-29.000000,-47.000000
-29.000000,-47.000000
-29.000000,-46.000000
-29.000000,-46.000000
-30.000000,-46.000000
-30.000000,-46.000000
-30.000000,-45.000000
-30.000000,-45.000000
-29.000000,-45.000000
-29.000000,-45.000000
-29.000000,-46.000000
-29.000000,-46.000000
-28.000000,-46.000000
-28.000000,-46.000000
-28.000000,-45.000000
-28.000000,-45.000000
-27.000000,-45.000000
-27.000000,-45.000000
-27.000000,-46.000000
-27.000000,-46.000000
-28.000000,-46.000000
-28.000000,-46.000000
-28.000000,-47.000000
-28.000000,-47.000000
-27.000000,-47.000000
-27.000000,-47.000000
-27.000000,-48.000000
-27.000000,-48.000000
-28.000000,-48.000000
-28.000000,-48.000000
-28.000000,-47.000000
-28.000000,-47.000000
-29.000000,-47.000000
-29.000000,-47.000000
-29.000000,-48.000000
-29.000000,-48.000000
-30.000000,-48.000000
-30.000000,-48.000000
-30.000000,-49.000000
-30.000000,-49.000000
-31.000000,-49.000000
-31.000000,-49.000000
-31.000000,-50.000000
-31.000000,-50.000000
-30.000000,-50.000000
-30.000000,-50.000000
-30.000000,-51.000000
-30.000000,-51.000000
-29.000000,-51.000000
-29.000000,-51.000000
-29.000000,-52.000000
-29.000000,-52.000000
-28.000000,-52.000000
-28.000000,-52.000000
-28.000000,-51.000000
-28.000000,-51.000000
-27.000000,-51.000000
-27.000000,-51.000000
-27.000000,-52.000000
-27.000000,-52.000000
-28.000000,-52.000000
-28.000000,-52.000000
-28.000000,-53.000000
-28.000000,-53.000000
-27.000000,-53.000000
-27.000000,-53.000000
-27.000000,-54.000000
-27.000000,-54.000000
-26.000000,-54.000000
-26.000000,-54.000000
-26.000000,-55.000000
-26.000000,-55.000000
-25.000000,-55.000000
-25.000000,-55.000000
-25.000000,-54.000000
-25.000000,-54.000000
-24.000000,-54.000000
-24.000000,-54.000000
-24.000000,-55.000000
-24.000000,-55.000000
-25.000000,-55.000000
-25.000000,-55.000000
-25.000000,-56.000000
-25.000000,-56.000000
-24.000000,-56.000000
-24.000000,-56.000000
-24.000000,-57.000000
-24.000000,-57.000000
-23.000000,-57.000000
-23.000000,-57.000000
-23.000000,-58.000000
-23.000000,-58.000000
-22.000000,-58.000000
-22.000000,-58.000000
-22.000000,-57.000000
-22.000000,-57.000000
-21.000000,-57.000000
-21.000000,-57.000000
-21.000000,-56.000000
-21.000000,-56.000000
-20.000000,-56.000000
-20.000000,-56.000000
-20.000000,-55.000000
-20.000000,-55.000000
-21.000000,-55.000000
-21.000000,-55.000000
-21.000000,-54.000000
-21.000000,-54.000000
-20.000000,-54.000000
-20.000000,-54.000000
-20.000000,-55.000000
-20.000000,-55.000000
-19.000000,-55.000000
-19.000000,-55.000000
-19.000000,-54.000000
-19.000000,-54.000000
-18.000000,-54.000000
-18.000000,-54.000000
-18.000000,-55.000000
-18.000000,-55.000000
-19.000000,-55.000000
-19.000000,-55.000000
-19.000000,-56.000000
-19.000000,-56.000000
-18.000000,-56.000000
-18.000000,-56.000000
-18.000000,-57.000000
-18.000000,-57.000000
-19.000000,-57.000000
-19.000000,-57.000000
-19.000000,-56.000000
-19.000000,-56.000000
-20.000000,-56.000000
-20.000000,-56.000000
-20.000000,-57.000000
-20.000000,-57.000000
-21.000000,-57.000000
-21.000000,-57.000000
-21.000000,-58.000000
-21.000000,-58.000000
-22.000000,-58.000000
-22.000000,-58.000000
-22.000000,-59.000000
-22.000000,-59.000000
-21.000000,-59.000000
-21.000000,-59.000000
-21.000000,-60.000000
-21.000000,-60.000000
-20.000000,-60.000000
-20.000000,-60.000000
-20.000000,-61.000000
-20.000000,-61.000000
-19.000000,-61.000000
-19.000000,-61.000000
-19.000000,-60.000000
-19.000000,-60.000000
-18.000000,-60.000000
-18.000000,-60.000000
-18.000000,-61.000000
-18.000000,-61.000000
-19.000000,-61.000000
-19.000000,-61.000000
-19.000000,-62.000000
-19.000000,-62.000000
-18.000000,-62.000000
-18.000000,-62.000000
-18.000000,-63.000000
-18.000000,-63.000000
-17.000000,-63.000000
-17.000000,-63.000000
-17.000000,-64.000000
-17.000000,-64.000000
-16.000000,-64.000000
-16.000000,-64.000000
-16.000000,-63.000000
-16.000000,-63.000000
-15.000000,-63.000000
-15.000000,-63.000000
-15.000000,-64.000000
-15.000000,-64.000000
-16.000000,-64.000000
-16.000000,-64.000000
-16.000000,-65.000000
-16.000000,-65.000000
-15.000000,-65.000000
-15.000000,-65.000000
-15.000000,-66.000000
-15.000000,-66.000000
-14.000000,-66.000000
-14.000000,-66.000000
-14.000000,-67.000000
-14.000000,-67.000000
-13.000000,-67.000000
-13.000000,-67.000000
-13.000000,-66.000000
-13.000000,-66.000000
-12.000000,-66.000000
-12.000000,-66.000000
-12.000000,-65.000000
-12.000000,-65.000000
-11.000000,-65.000000
-11.000000,-65.000000
-11.000000,-64.000000
-11.000000,-64.000000
-12.000000,-64.000000
-12.000000,-64.000000
-12.000000,-63.000000
-12.000000,-63.000000
-11.000000,-63.000000
-11.000000,-63.000000
-11.000000,-64.000000
-11.000000,-64.000000
-10.000000,-64.000000
-10.000000,-64.000000
-10.000000,-63.000000
-10.000000,-63.000000
 -9.000000,-63.000000
 -9.000000,-63.000000
 -9.000000,-62.000000
 -9.000000,-62.000000
 -8.000000,-62.000000
 -8.000000,-62.000000
 -8.000000,-61.000000
 -8.000000,-61.000000
 -9.000000,-61.000000
 -9.000000,-61.000000
 -9.000000,-60.000000
 -9.000000,-60.000000
 -8.000000,-60.000000
 -8.000000,-60.000000
 -8.000000,-61.000000
 -8.000000,-61.000000
 -7.000000,-61.000000
 -7.000000,-61.000000
 -7.000000,-60.000000
 -7.000000,-60.000000
 -6.000000,-60.000000
 -6.000000,-60.000000
 -6.000000,-59.000000
 -6.000000,-59.000000
 -5.000000,-59.000000
 -5.000000,-59.000000
 -5.000000,-58.000000
 -5.000000,-58.000000
 -6.000000,-58.000000
 -6.000000,-58.000000
 -6.000000,-57.000000
 -6.000000,-57.000000
 -7.000000,-57.000000
 -7.000000,-57.000000
 -7.000000,-56.000000
 -7.000000,-56.000000
 -8.000000,-56.000000
 -8.000000,-56.000000
 -8.000000,-57.000000
 -8.000000,-57.000000
 -9.000000,-57.000000
 -9.000000,-57.000000
 -9.000000,-56.000000
 -9.000000,-56.000000
 -8.000000,-56.000000
 -8.000000,-56.000000
 -8.000000,-55.000000
 -8.000000,-55.000000
 -9.000000,-55.000000
 -9.000000,-55.000000
 -9.000000,-54.000000
 -9.000000,-54.000000
 -8.000000,-54.000000
 -8.000000,-54.000000
 -8.000000,-55.000000
 -8.000000,-55.000000
 -7.000000,-55.000000
 -7.000000,-55.000000
 -7.000000,-54.000000
 -7.000000,-54.000000
 -6.000000,-54.000000
 -6.000000,-54.000000
 -6.000000,-55.000000
 -6.000000,-55.000000
 -7.000000,-55.000000
 -7.000000,-55.000000
 -7.000000,-56.000000
 -7.000000,-56.000000
 -6.000000,-56.000000
 -6.000000,-56.000000
 -6.000000,-57.000000
 -6.000000,-57.000000
 -5.000000,-57.000000
 -5.000000,-57.000000
 -5.000000,-58.000000
 -5.000000,-58.000000
 -4.000000,-58.000000
 -4.000000,-58.000000
 -4.000000,-57.000000
 -4.000000,-57.000000
 -3.000000,-57.000000
 -3.000000,-57.000000
 -3.000000,-56.000000
 -3.000000,-56.000000
 -2.000000,-56.000000
 -2.000000,-56.000000
 -1.999999,-55.000000
 -1.999999,-55.000000
 -3.000000,-55.000000
 -3.000000,-55.000000
 -2.999999,-54.000000
 -2.999999,-54.000000
 -1.999999,-54.000000
 -1.999999,-54.000000
 -1.999999,-55.000000
 -1.999999,-55.000000
 -0.999999,-55.000000
 -0.999999,-55.000000
 -0.999999,-54.000000
 -0.999999,-54.000000
  0.000001,-54.000000
  0.000001,-54.000000
  0.000001,-55.000000
  0.000001,-55.000000
 -0.999999,-55.000000
 -0.999999,-55.000000
 -0.999999,-56.000000
 -0.999999,-56.000000
  0.000001,-56.000000
  0.000001,-56.000000
  0.000001,-57.000000
  0.000001,-57.000000
 -0.999999,-57.000000
 -0.999999,-57.000000
 -0.999999,-56.000000
 -0.999999,-56.000000
 -1.999999,-56.000000
 -1.999999,-56.000000
 -1.999999,-57.000000
 -1.999999,-57.000000
 -2.999999,-57.000000
 -2.999999,-57.000000
 -2.999999,-58.000000
 -2.999999,-58.000000
 -3.999999,-58.000000
 -3.999999,-58.000000
 -3.999999,-59.000000
 -3.999999,-59.000000
 -2.999999,-59.000000
 -2.999999,-59.000000
 -2.999999,-60.000000
 -2.999999,-60.000000
 -1.999999,-60.000000
 -1.999999,-60.000000
 -1.999999,-61.000000
 -1.999999,-61.000000
 -0.999999,-61.000000
 -0.999999,-61.000000
 -0.999999,-60.000000
 -0.999999,-60.000000
  0.000001,-60.000000
  0.000001,-60.000000
  0.000001,-61.000000
  0.000001,-61.000000
 -0.999999,-61.000000
 -0.999999,-61.000000
 -0.999999,-62.000000
 -0.999999,-62.000000
  0.000001,-62.000000
  0.000001,-62.000000
  0.000001,-63.000000
  0.000001,-63.000000
 -0.999999,-63.000000
 -0.999999,-63.000000
 -0.999999,-62.000000
 -0.999999,-62.000000
 -1.999999,-62.000000
 -1.999999,-62.000000
 -1.999999,-63.000000
 -1.999999,-63.000000
 -2.999999,-63.000000
 -2.999999,-63.000000
 -2.999999,-62.000000
 -2.999999,-62.000000
 -1.999999,-62.000000
 -1.999999,-62.000000
 -1.999999,-61.000000
 -1.999999,-61.000000
 -2.999999,-61.000000
 -2.999999,-61.000000
 -2.999999,-60.000000
 -2.999999,-60.000000
 -3.999999,-60.000000
 -3.999999,-60.000000
 -3.999999,-59.000000
 -3.999999,-59.000000
 -4.999999,-59.000000
 -4.999999,-59.000000
 -4.999999,-60.000000
 -4.999999,-60.000000
 -5.999999,-60.000000
 -5.999999,-60.000000
 -5.999999,-61.000000
 -5.999999,-61.000000
 -6.999999,-61.000000
 -6.999999,-61.000000
 -6.999999,-62.000000
 -6.999999,-62.000000
 -5.999999,-62.000000
 -5.999999,-62.000000
 -5.999999,-63.000000
 -5.999999,-63.000000
 -6.999999,-63.000000
 -6.999999,-63.000000
 -6.999999,-62.000000
 -6.999999,-62.000000
 -7.999999,-62.000000
 -7.999999,-62.000000
 -7.999999,-63.000000
 -7.999999,-63.000000
 -8.999999,-63.000000
 -8.999999,-63.000000
 -8.999999,-64.000000
 -8.999999,-64.000000
 -9.999999,-64.000000
 -9.999999,-64.000000
 -9.999999,-65.000000
 -9.999999,-65.000000
 -8.999999,-65.000000
 -8.999999,-65.000000
 -8.999999,-66.000000
 -8.999999,-66.000000
 -9.999999,-66.000000
 -9.999999,-66.000000
 -9.999999,-65.000000
 -9.999999,-65.000000
-10.999999,-65.000000
-10.999999,-65.000000
-10.999999,-66.000000
-10.999999,-66.000000
-11.999999,-66.000000
-11.999999,-66.000000
-11.999999,-67.000000
-11.999999,-67.000000
-12.999999,-67.000000
-12.999999,-67.000000
-12.999999,-68.000000
-12.999999,-68.000000
-11.999999,-68.000000
-11.999999,-68.000000
-11.999999,-69.000000
-11.999999,-69.000000
-10.999999,-69.000000
-10.999999,-69.000000
-10.999999,-70.000000
-10.999999,-70.000000
 -9.999999,-70.000000
 -9.999999,-70.000000
 -9.999999,-69.000000
 -9.999999,-69.000000
 -8.999999,-69.000000
 -8.999999,-69.000000
 -8.999999,-70.000000
 -8.999999,-70.000000
 -9.999999,-70.000000
 -9.999999,-70.000000
 -9.999999,-71.000000
 -9.999999,-71.000000
 -8.999999,-71.000000
 -8.999999,-71.000000
 -8.999999,-72.000000
 -8.999999,-72.000000
 -7.999999,-72.000000
 -7.999999,-72.000000
 -7.999999,-73.000000
 -7.999999,-73.000000
 -6.999999,-73.000000
 -6.999999,-73.000000
 -6.999999,-72.000000
 -6.999999,-72.000000
 -5.999999,-72.000000
 -5.999999,-72.000000
 -5.999999,-73.000000
 -5.999999,-73.000000
 -6.999999,-73.000000
 -6.999999,-73.000000
 -6.999999,-74.000000
 -6.999999,-74.000000
 -5.999999,-74.000000
 -5.999999,-74.000000
 -5.999999,-75.000000
 -5.999999,-75.000000
 -4.999999,-75.000000
 -4.999999,-75.000000
 -4.999999,-76.000000
 -4.999999,-76.000000
 -3.999999,-76.000000
 -3.999999,-76.000000
 -3.999999,-75.000000
 -3.999999,-75.000000
 -2.999999,-75.000000
 -2.999999,-75.000000
 -2.999999,-74.000000
 -2.999999,-74.000000
 -1.999999,-74.000000
 -1.999999,-74.000000
 -1.999998,-73.000000
 -1.999998,-73.000000
 -2.999999,-73.000000
 -2.999999,-73.000000
 -2.999998,-72.000000
 -2.999998,-72.000000
 -1.999998,-72.000000
 -1.999998,-72.000000
 -1.999998,-73.000000
 -1.999998,-73.000000
 -0.999998,-73.000000
 -0.999998,-73.000000
 -0.999998,-72.000000
 -0.999998,-72.000000
  0.000002,-72.000000
  0.000002,-72.000000
  0.000002,-73.000000
  0.000002,-73.000000
 -0.999998,-73.000000
 -0.999998,-73.000000
 -0.999998,-74.000000
 -0.999998,-74.000000
  0.000002,-74.000000
  0.000002,-74.000000
  0.000002,-75.000000
  0.000002,-75.000000
 -0.999998,-75.000000
 -0.999998,-75.000000
 -0.999998,-74.000000
 -0.999998,-74.000000
 -1.999998,-74.000000
 -1.999998,-74.000000
 -1.999998,-75.000000
 -1.999998,-75.000000
 -2.999998,-75.000000
 -2.999998,-75.000000
 -2.999998,-76.000000
 -2.999998,-76.000000
 -3.999998,-76.000000
 -3.999998,-76.000000
 -3.999998,-77.000000
 -3.999998,-77.000000
 -2.999998,-77.000000
 -2.999998,-77.000000
 -2.999998,-78.000000
 -2.999998,-78.000000
 -1.999998,-78.000000
 -1.999998,-78.000000
 -1.999998,-79.000000
 -1.999998,-79.000000
 -0.999998,-79.000000
 -0.999998,-79.000000
 -0.999998,-78.000000
 -0.999998,-78.000000
  0.000002,-78.000000
  0.000002,-78.000000
  0.000002,-79.000000
  0.000002,-79.000000
 -0.999998,-79.000000
 -0.999998,-79.000000
 -0.999998,-80.000000
 -0.999998,-80.000000
  0.000002,-80.000000
  0.000002,-80.000000
 "
/>
</svg>
