<svg xmlns="http://www.w3.org/2000/svg"
 viewBox="-33.385643 -29.098473 34.771282 30.484116"
>
<polyline
 fill="none" stroke="green" stroke-width="0.25%"
 points="
  0.000000,  0.000000
 -1.000000, -0.000000
 -1.000000, -0.000000
 -0.500000, -0.866026
 -0.500000, -0.866026
 -1.500000, -0.866026
 -1.500000, -0.866026
 -1.000000, -0.000000
 -1.000000, -0.000000
 -2.000000, -0.000000
 -2.000000, -0.000000
 -1.500000, -0.866026
 -1.000000, -1.732051
 -1.000000, -1.732051
 -2.000000, -1.732051
 -2.000000, -1.732051
 -1.500000, -2.598077
 -1.500000, -2.598077
 -2.500000, -2.598077
 -2.500000, -2.598077
 -2.000000, -1.732051
 -2.000000, -1.732051
 -3.000000, -1.732052
 -3.000000, -1.732052
 -2.500000, -0.866026
 -2.000000, -0.000001
 -2.000000, -0.000001
 -3.000000, -0.000001
 -3.000000, -0.000001
 -2.500000, -0.866026
 -2.500000, -0.866026
 -3.500000, -0.866026
 -3.500000, -0.866026
 -3.000000, -0.000001
 -3.000000, -0.000001
 -4.000000, -0.000001
 -4.000000, -0.000001
 -3.500000, -0.866026
 -3.000000, -1.732052
 -2.500000, -2.598077
 -2.000000, -3.464102
 -2.000000, -3.464102
 -3.000000, -3.464102
 -3.000000, -3.464102
 -2.500000, -4.330128
 -2.500000, -4.330128
 -3.500000, -4.330128
 -3.500000, -4.330128
 -3.000000, -3.464102
 -3.000000, -3.464102
 -4.000000, -3.464102
 -4.000000, -3.464102
 -3.500000, -4.330128
 -3.000000, -5.196153
 -3.000000, -5.196153
 -4.000000, -5.196153
 -4.000000, -5.196153
 -3.500000, -6.062179
 -3.500000, -6.062179
 -4.500000, -6.062179
 -4.500000, -6.062179
 -4.000000, -5.196153
 -4.000000, -5.196153
 -5.000000, -5.196153
 -5.000000, -5.196153
 -4.500000, -4.330128
 -4.000000, -3.464102
 -4.000000, -3.464102
 -5.000000, -3.464102
 -5.000000, -3.464102
 -4.500000, -4.330128
 -4.500000, -4.330128
 -5.500000, -4.330128
 -5.500000, -4.330128
 -5.000000, -3.464102
 -5.000000, -3.464102
 -6.000000, -3.464102
 -6.000000, -3.464102
 -5.500000, -2.598077
 -5.000000, -1.732051
 -4.500000, -0.866026
 -4.000000, -0.000000
 -4.000000, -0.000000
 -5.000000, -0.000001
 -5.000000, -0.000001
 -4.500000, -0.866026
 -4.500000, -0.866026
 -5.500000, -0.866026
 -5.500000, -0.866026
 -5.000000, -0.000001
 -5.000000, -0.000001
 -6.000000, -0.000001
 -6.000000, -0.000001
 -5.500000, -0.866026
 -5.000000, -1.732052
 -5.000000, -1.732052
 -6.000000, -1.732052
 -6.000000, -1.732052
 -5.500000, -2.598077
 -5.500000, -2.598077
 -6.500000, -2.598077
 -6.500000, -2.598077
 -6.000000, -1.732052
 -6.000000, -1.732052
 -7.000000, -1.732052
 -7.000000, -1.732052
 -6.500000, -0.866026
 -6.000000, -0.000001
 -6.000000, -0.000001
 -7.000000, -0.000001
 -7.000000, -0.000001
 -6.500000, -0.866027
 -6.500000, -0.866027
 -7.500000, -0.866027
 -7.500000, -0.866027
 -7.000000, -0.000001
 -7.000000, -0.000001
 -8.000000, -0.000001
 -8.000000, -0.000001
 -7.500000, -0.866027
 -7.000000, -1.732052
 -6.500000, -2.598078
 -6.000000, -3.464103
 -5.500000, -4.330129
 -5.000000, -5.196154
 -4.500000, -6.062180
 -4.000000, -6.928205
 -4.000000, -6.928205
 -5.000000, -6.928205
 -5.000000, -6.928205
 -4.500000, -7.794230
 -4.500000, -7.794230
 -5.500000, -7.794230
 -5.500000, -7.794230
 -5.000000, -6.928205
 -5.000000, -6.928205
 -6.000000, -6.928205
 -6.000000, -6.928205
 -5.500000, -7.794230
 -5.000000, -8.660255
 -5.000000, -8.660255
 -6.000000, -8.660255
 -6.000000, -8.660255
 -5.500000, -9.526281
 -5.500000, -9.526281
 -6.500000, -9.526281
 -6.500000, -9.526281
 -6.000000, -8.660255
 -6.000000, -8.660255
 -7.000000, -8.660255
 -7.000000, -8.660255
 -6.500000, -7.794230
 -6.000000, -6.928204
 -6.000000, -6.928204
 -7.000000, -6.928204
 -7.000000, -6.928204
 -6.500000, -7.794230
 -6.500000, -7.794230
 -7.500000, -7.794230
 -7.500000, -7.794230
 -7.000000, -6.928204
 -7.000000, -6.928204
 -8.000000, -6.928204
 -8.000000, -6.928204
 -7.500000, -7.794230
 -7.000000, -8.660255
 -6.500000, -9.526281
 -6.000000,-10.392307
 -6.000000,-10.392307
 -7.000000,-10.392307
 -7.000000,-10.392307
 -6.500000,-11.258333
 -6.500000,-11.258333
 -7.500000,-11.258333
 -7.500000,-11.258333
 -7.000000,-10.392307
 -7.000000,-10.392307
 -8.000000,-10.392307
 -8.000000,-10.392307
 -7.500000,-11.258333
 -7.000000,-12.124359
 -7.000000,-12.124359
 -8.000000,-12.124359
 -8.000000,-12.124359
 -7.500000,-12.990385
 -7.500000,-12.990385
 -8.500000,-12.990385
 -8.500000,-12.990385
 -8.000000,-12.124359
 -8.000000,-12.124359
 -9.000000,-12.124359
 -9.000000,-12.124359
 -8.500000,-11.258333
 -8.000000,-10.392307
 -8.000000,-10.392307
 -9.000000,-10.392307
 -9.000000,-10.392307
 -8.500000,-11.258333
 -8.500000,-11.258333
 -9.500000,-11.258333
 -9.500000,-11.258333
 -9.000000,-10.392307
 -9.000000,-10.392307
-10.000000,-10.392307
-10.000000,-10.392307
 -9.500000, -9.526281
 -9.000000, -8.660255
 -8.500000, -7.794230
 -8.000000, -6.928204
 -8.000000, -6.928204
 -9.000000, -6.928204
 -9.000000, -6.928204
 -8.500000, -7.794230
 -8.500000, -7.794230
 -9.500000, -7.794230
 -9.500000, -7.794230
 -9.000000, -6.928204
 -9.000000, -6.928204
-10.000000, -6.928204
-10.000000, -6.928204
 -9.500000, -7.794230
 -9.000000, -8.660255
 -9.000000, -8.660255
-10.000000, -8.660255
-10.000000, -8.660255
 -9.500000, -9.526281
 -9.500000, -9.526281
-10.500000, -9.526281
-10.500000, -9.526281
-10.000000, -8.660255
-10.000000, -8.660255
-11.000000, -8.660255
-11.000000, -8.660255
-10.500000, -7.794230
-10.000000, -6.928204
-10.000000, -6.928204
-11.000000, -6.928204
-11.000000, -6.928204
-10.500000, -7.794230
-10.500000, -7.794230
-11.500000, -7.794230
-11.500000, -7.794230
-11.000000, -6.928204
-11.000000, -6.928204
-12.000000, -6.928204
-12.000000, -6.928204
-11.500000, -6.062179
-11.000000, -5.196154
-10.500000, -4.330128
-10.000000, -3.464103
 -9.500000, -2.598077
 -9.000000, -1.732052
 -8.500000, -0.866026
 -8.000000, -0.000001
 -8.000000, -0.000001
 -9.000000, -0.000001
 -9.000000, -0.000001
 -8.500000, -0.866026
 -8.500000, -0.866026
 -9.500000, -0.866026
 -9.500000, -0.866026
 -9.000000, -0.000001
 -9.000000, -0.000001
-10.000000, -0.000001
-10.000000, -0.000001
 -9.500000, -0.866027
 -9.000000, -1.732052
 -9.000000, -1.732052
-10.000000, -1.732052
-10.000000, -1.732052
 -9.500000, -2.598078
 -9.500000, -2.598078
-10.500000, -2.598078
-10.500000, -2.598078
-10.000000, -1.732052
-10.000000, -1.732052
-11.000000, -1.732052
-11.000000, -1.732052
-10.500000, -0.866027
-10.000000, -0.000002
-10.000000, -0.000002
-11.000000, -0.000002
-11.000000, -0.000002
-10.500000, -0.866027
-10.500000, -0.866027
-11.500000, -0.866027
-11.500000, -0.866027
-11.000000, -0.000002
-11.000000, -0.000002
-12.000000, -0.000002
-12.000000, -0.000002
-11.500000, -0.866027
-11.000000, -1.732053
-10.500000, -2.598078
-10.000000, -3.464104
-10.000000, -3.464104
-11.000000, -3.464104
-11.000000, -3.464104
-10.500000, -4.330129
-10.500000, -4.330129
-11.500000, -4.330129
-11.500000, -4.330129
-11.000000, -3.464103
-11.000000, -3.464103
-12.000000, -3.464103
-12.000000, -3.464103
-11.500000, -4.330129
-11.000000, -5.196154
-11.000000, -5.196154
-12.000000, -5.196154
-12.000000, -5.196154
-11.500000, -6.062180
-11.500000, -6.062180
-12.500000, -6.062180
-12.500000, -6.062180
-12.000000, -5.196154
-12.000000, -5.196154
-13.000000, -5.196154
-13.000000, -5.196154
-12.500000, -4.330129
-12.000000, -3.464103
-12.000000, -3.464103
-13.000000, -3.464103
-13.000000, -3.464103
-12.500000, -4.330129
-12.500000, -4.330129
-13.500000, -4.330129
-13.500000, -4.330129
-13.000000, -3.464103
-13.000000, -3.464103
-14.000000, -3.464103
-14.000000, -3.464103
-13.500000, -2.598078
-13.000000, -1.732052
-12.500000, -0.866027
-12.000000, -0.000001
-12.000000, -0.000001
-13.000000, -0.000002
-13.000000, -0.000002
-12.500000, -0.866027
-12.500000, -0.866027
-13.500000, -0.866027
-13.500000, -0.866027
-13.000000, -0.000002
-13.000000, -0.000002
-14.000000, -0.000002
-14.000000, -0.000002
-13.500000, -0.866027
-13.000000, -1.732053
-13.000000, -1.732053
-14.000000, -1.732053
-14.000000, -1.732053
-13.500000, -2.598078
-13.500000, -2.598078
-14.500000, -2.598078
-14.500000, -2.598078
-14.000000, -1.732053
-14.000000, -1.732053
-15.000000, -1.732053
-15.000000, -1.732053
-14.500000, -0.866028
-14.000000, -0.000002
-14.000000, -0.000002
-15.000000, -0.000002
-15.000000, -0.000002
-14.500000, -0.866028
-14.500000, -0.866028
-15.500000, -0.866028
-15.500000, -0.866028
-15.000000, -0.000002
-15.000000, -0.000002
-16.000000, -0.000002
-16.000000, -0.000002
-15.500000, -0.866028
-15.000000, -1.732053
-14.500000, -2.598078
-14.000000, -3.464104
-13.500000, -4.330130
-13.000000, -5.196155
-12.500000, -6.062180
-12.000000, -6.928206
-11.500000, -7.794231
-11.000000, -8.660257
-10.500000, -9.526283
-10.000000,-10.392309
 -9.500000,-11.258335
 -9.000000,-12.124361
 -8.500000,-12.990387
 -8.000000,-13.856413
 -8.000000,-13.856413
 -9.000000,-13.856413
 -9.000000,-13.856413
 -8.500000,-14.722439
 -8.500000,-14.722439
 -9.500000,-14.722439
 -9.500000,-14.722439
 -9.000000,-13.856413
 -9.000000,-13.856413
-10.000000,-13.856413
-10.000000,-13.856413
 -9.500000,-14.722439
 -9.000000,-15.588465
 -9.000000,-15.588465
-10.000000,-15.588465
-10.000000,-15.588465
 -9.500000,-16.454490
 -9.500000,-16.454490
-10.500000,-16.454490
-10.500000,-16.454490
-10.000000,-15.588465
-10.000000,-15.588465
-11.000000,-15.588465
-11.000000,-15.588465
-10.500000,-14.722439
-10.000000,-13.856413
-10.000000,-13.856413
-11.000000,-13.856413
-11.000000,-13.856413
-10.500000,-14.722439
-10.500000,-14.722439
-11.500000,-14.722439
-11.500000,-14.722439
-11.000000,-13.856413
-11.000000,-13.856413
-12.000000,-13.856413
-12.000000,-13.856413
-11.500000,-14.722439
-11.000000,-15.588465
-10.500000,-16.454490
-10.000000,-17.320517
-10.000000,-17.320517
-11.000000,-17.320517
-11.000000,-17.320517
-10.500000,-18.186543
-10.500000,-18.186543
-11.500000,-18.186543
-11.500000,-18.186543
-11.000000,-17.320517
-11.000000,-17.320517
-12.000000,-17.320517
-12.000000,-17.320517
-11.500000,-18.186543
-11.000000,-19.052568
-11.000000,-19.052568
-12.000000,-19.052568
-12.000000,-19.052568
-11.500000,-19.918594
-11.500000,-19.918594
-12.500000,-19.918594
-12.500000,-19.918594
-12.000000,-19.052568
-12.000000,-19.052568
-13.000000,-19.052568
-13.000000,-19.052568
-12.500000,-18.186543
-12.000000,-17.320517
-12.000000,-17.320517
-13.000000,-17.320517
-13.000000,-17.320517
-12.500000,-18.186543
-12.500000,-18.186543
-13.500000,-18.186543
-13.500000,-18.186543
-13.000000,-17.320517
-13.000000,-17.320517
-14.000000,-17.320517
-14.000000,-17.320517
-13.500000,-16.454490
-13.000000,-15.588465
-12.500000,-14.722439
-12.000000,-13.856413
-12.000000,-13.856413
-13.000000,-13.856413
-13.000000,-13.856413
-12.500000,-14.722439
-12.500000,-14.722439
-13.500000,-14.722439
-13.500000,-14.722439
-13.000000,-13.856413
-13.000000,-13.856413
-14.000000,-13.856413
-14.000000,-13.856413
-13.500000,-14.722439
-13.000000,-15.588465
-13.000000,-15.588465
-14.000000,-15.588465
-14.000000,-15.588465
-13.500000,-16.454490
-13.500000,-16.454490
-14.500000,-16.454490
-14.500000,-16.454490
-14.000000,-15.588465
-14.000000,-15.588465
-15.000000,-15.588465
-15.000000,-15.588465
-14.500000,-14.722439
-14.000000,-13.856413
-14.000000,-13.856413
-15.000000,-13.856413
-15.000000,-13.856413
-14.500000,-14.722439
-14.500000,-14.722439
-15.500000,-14.722439
-15.500000,-14.722439
-15.000000,-13.856413
-15.000000,-13.856413
-16.000000,-13.856413
-16.000000,-13.856413
-15.500000,-14.722439
-15.000000,-15.588465
-14.500000,-16.454490
-14.000000,-17.320517
-13.500000,-18.186543
-13.000000,-19.052568
-12.500000,-19.918594
-12.000000,-20.784620
-12.000000,-20.784620
-13.000000,-20.784620
-13.000000,-20.784620
-12.500000,-21.650646
-12.500000,-21.650646
-13.500000,-21.650646
-13.500000,-21.650646
-13.000000,-20.784620
-13.000000,-20.784620
-14.000000,-20.784620
-14.000000,-20.784620
-13.500000,-21.650646
-13.000000,-22.516672
-13.000000,-22.516672
-14.000000,-22.516672
-14.000000,-22.516672
-13.500000,-23.382698
-13.500000,-23.382698
-14.500000,-23.382698
-14.500000,-23.382698
-14.000000,-22.516672
-14.000000,-22.516672
-15.000000,-22.516672
-15.000000,-22.516672
-14.500000,-21.650646
-14.000000,-20.784620
-14.000000,-20.784620
-15.000000,-20.784620
-15.000000,-20.784620
-14.500000,-21.650646
-14.500000,-21.650646
-15.500000,-21.650646
-15.500000,-21.650646
-15.000000,-20.784620
-15.000000,-20.784620
-16.000000,-20.784620
-16.000000,-20.784620
-15.500000,-21.650646
-15.000000,-22.516672
-14.500000,-23.382698
-14.000000,-24.248724
-14.000000,-24.248724
-15.000000,-24.248724
-15.000000,-24.248724
-14.500000,-25.114750
-14.500000,-25.114750
-15.500000,-25.114750
-15.500000,-25.114750
-15.000000,-24.248724
-15.000000,-24.248724
-16.000000,-24.248724
-16.000000,-24.248724
-15.500000,-25.114750
-15.000000,-25.980776
-15.000000,-25.980776
-16.000000,-25.980776
-16.000000,-25.980776
-15.500000,-26.846802
-15.500000,-26.846802
-16.500000,-26.846802
-16.500000,-26.846802
-16.000000,-25.980776
-16.000000,-25.980776
-17.000000,-25.980776
-17.000000,-25.980776
-16.500000,-25.114750
-16.000000,-24.248724
-16.000000,-24.248724
-17.000000,-24.248724
-17.000000,-24.248724
-16.500000,-25.114750
-16.500000,-25.114750
-17.500000,-25.114750
-17.500000,-25.114750
-17.000000,-24.248724
-17.000000,-24.248724
-18.000000,-24.248724
-18.000000,-24.248724
-17.500000,-23.382698
-17.000000,-22.516672
-16.500000,-21.650646
-16.000000,-20.784620
-16.000000,-20.784620
-17.000000,-20.784620
-17.000000,-20.784620
-16.500000,-21.650646
-16.500000,-21.650646
-17.500000,-21.650646
-17.500000,-21.650646
-17.000000,-20.784620
-17.000000,-20.784620
-18.000000,-20.784620
-18.000000,-20.784620
-17.500000,-21.650646
-17.000000,-22.516672
-17.000000,-22.516672
-18.000000,-22.516672
-18.000000,-22.516672
-17.500000,-23.382698
-17.500000,-23.382698
-18.500000,-23.382698
-18.500000,-23.382698
-18.000000,-22.516672
-18.000000,-22.516672
-19.000000,-22.516672
-19.000000,-22.516672
-18.500000,-21.650646
-18.000000,-20.784620
-18.000000,-20.784620
-19.000000,-20.784620
-19.000000,-20.784620
-18.500000,-21.650646
-18.500000,-21.650646
-19.500000,-21.650646
-19.500000,-21.650646
-19.000000,-20.784620
-19.000000,-20.784620
-20.000000,-20.784620
-20.000000,-20.784620
-19.500000,-19.918594
-19.000000,-19.052568
-18.500000,-18.186543
-18.000000,-17.320517
-17.500000,-16.454490
-17.000000,-15.588465
-16.500000,-14.722439
-16.000000,-13.856413
-16.000000,-13.856413
-17.000000,-13.856413
-17.000000,-13.856413
-16.500000,-14.722439
-16.500000,-14.722439
-17.500000,-14.722439
-17.500000,-14.722439
-17.000000,-13.856413
-17.000000,-13.856413
-18.000000,-13.856413
-18.000000,-13.856413
-17.500000,-14.722439
-17.000000,-15.588465
-17.000000,-15.588465
-18.000000,-15.588465
-18.000000,-15.588465
-17.500000,-16.454490
-17.500000,-16.454490
-18.500000,-16.454490
-18.500000,-16.454490
-18.000000,-15.588465
-18.000000,-15.588465
-19.000000,-15.588465
-19.000000,-15.588465
-18.500000,-14.722439
-18.000000,-13.856413
-18.000000,-13.856413
-19.000000,-13.856413
-19.000000,-13.856413
-18.500000,-14.722439
-18.500000,-14.722439
-19.500000,-14.722439
-19.500000,-14.722439
-19.000000,-13.856413
-19.000000,-13.856413
-20.000000,-13.856413
-20.000000,-13.856413
-19.500000,-14.722439
-19.000000,-15.588465
-18.500000,-16.454490
-18.000000,-17.320517
-18.000000,-17.320517
-19.000000,-17.320517
-19.000000,-17.320517
-18.500000,-18.186543
-18.500000,-18.186543
-19.500000,-18.186543
-19.500000,-18.186543
-19.000000,-17.320517
-19.000000,-17.320517
-20.000000,-17.320517
-20.000000,-17.320517
-19.500000,-18.186543
-19.000000,-19.052568
-19.000000,-19.052568
-20.000000,-19.052568
-20.000000,-19.052568
-19.500000,-19.918594
-19.500000,-19.918594
-20.500000,-19.918594
-20.500000,-19.918594
-20.000000,-19.052568
-20.000000,-19.052568
-21.000000,-19.052568
-21.000000,-19.052568
-20.500000,-18.186543
-20.000000,-17.320517
-20.000000,-17.320517
-21.000000,-17.320517
-21.000000,-17.320517
-20.500000,-18.186543
-20.500000,-18.186543
-21.500000,-18.186543
-21.500000,-18.186543
-21.000000,-17.320517
-21.000000,-17.320517
-22.000000,-17.320517
-22.000000,-17.320517
-21.500000,-16.454490
-21.000000,-15.588465
-20.500000,-14.722439
-20.000000,-13.856413
-20.000000,-13.856413
-21.000000,-13.856413
-21.000000,-13.856413
-20.500000,-14.722439
-20.500000,-14.722439
-21.500000,-14.722439
-21.500000,-14.722439
-21.000000,-13.856413
-21.000000,-13.856413
-22.000000,-13.856413
-22.000000,-13.856413
-21.500000,-14.722439
-21.000000,-15.588465
-21.000000,-15.588465
-22.000000,-15.588465
-22.000000,-15.588465
-21.500000,-16.454490
-21.500000,-16.454490
-22.500000,-16.454490
-22.500000,-16.454490
-22.000000,-15.588465
-22.000000,-15.588465
-23.000000,-15.588465
-23.000000,-15.588465
-22.500000,-14.722439
-22.000000,-13.856413
-22.000000,-13.856413
-23.000000,-13.856413
-23.000000,-13.856413
-22.500000,-14.722439
-22.500000,-14.722439
-23.500000,-14.722439
-23.500000,-14.722439
-23.000000,-13.856413
-23.000000,-13.856413
-24.000000,-13.856413
-24.000000,-13.856413
-23.500000,-12.990387
-23.000000,-12.124361
-22.500000,-11.258335
-22.000000,-10.392309
-21.500000, -9.526283
-21.000000, -8.660257
-20.500000, -7.794232
-20.000000, -6.928206
-19.500000, -6.062181
-19.000000, -5.196156
-18.500000, -4.330130
-18.000000, -3.464105
-17.500000, -2.598079
-17.000000, -1.732054
-16.500000, -0.866028
-16.000000, -0.000003
-16.000000, -0.000003
-17.000000, -0.000003
-17.000000, -0.000003
-16.500000, -0.866028
-16.500000, -0.866028
-17.500000, -0.866028
-17.500000, -0.866028
-17.000000, -0.000003
-17.000000, -0.000003
-18.000000, -0.000003
-18.000000, -0.000003
-17.500000, -0.866028
-17.000000, -1.732054
-17.000000, -1.732054
-18.000000, -1.732054
-18.000000, -1.732054
-17.500000, -2.598080
-17.500000, -2.598080
-18.500000, -2.598080
-18.500000, -2.598080
-18.000000, -1.732054
-18.000000, -1.732054
-19.000000, -1.732054
-19.000000, -1.732054
-18.500000, -0.866029
-18.000000, -0.000003
-18.000000, -0.000003
-19.000000, -0.000004
-19.000000, -0.000004
-18.500000, -0.866029
-18.500000, -0.866029
-19.500000, -0.866029
-19.500000, -0.866029
-19.000000, -0.000004
-19.000000, -0.000004
-20.000000, -0.000004
-20.000000, -0.000004
-19.500000, -0.866029
-19.000000, -1.732054
-18.500000, -2.598080
-18.000000, -3.464105
-18.000000, -3.464105
-19.000000, -3.464105
-19.000000, -3.464105
-18.500000, -4.330131
-18.500000, -4.330131
-19.500000, -4.330131
-19.500000, -4.330131
-19.000000, -3.464105
-19.000000, -3.464105
-20.000000, -3.464105
-20.000000, -3.464105
-19.500000, -4.330131
-19.000000, -5.196156
-19.000000, -5.196156
-20.000000, -5.196156
-20.000000, -5.196156
-19.500000, -6.062182
-19.500000, -6.062182
-20.500000, -6.062182
-20.500000, -6.062182
-20.000000, -5.196156
-20.000000, -5.196156
-21.000000, -5.196156
-21.000000, -5.196156
-20.500000, -4.330131
-20.000000, -3.464105
-20.000000, -3.464105
-21.000000, -3.464105
-21.000000, -3.464105
-20.500000, -4.330131
-20.500000, -4.330131
-21.500000, -4.330131
-21.500000, -4.330131
-21.000000, -3.464105
-21.000000, -3.464105
-22.000000, -3.464105
-22.000000, -3.464105
-21.500000, -2.598080
-21.000000, -1.732054
-20.500000, -0.866029
-20.000000, -0.000003
-20.000000, -0.000003
-21.000000, -0.000003
-21.000000, -0.000003
-20.500000, -0.866029
-20.500000, -0.866029
-21.500000, -0.866029
-21.500000, -0.866029
-21.000000, -0.000003
-21.000000, -0.000003
-22.000000, -0.000004
-22.000000, -0.000004
-21.500000, -0.866029
-21.000000, -1.732054
-21.000000, -1.732054
-22.000000, -1.732055
-22.000000, -1.732055
-21.500000, -2.598080
-21.500000, -2.598080
-22.500000, -2.598080
-22.500000, -2.598080
-22.000000, -1.732055
-22.000000, -1.732055
-23.000000, -1.732055
-23.000000, -1.732055
-22.500000, -0.866029
-22.000000, -0.000004
-22.000000, -0.000004
-23.000000, -0.000004
-23.000000, -0.000004
-22.500000, -0.866029
-22.500000, -0.866029
-23.500000, -0.866030
-23.500000, -0.866030
-23.000000, -0.000004
-23.000000, -0.000004
-24.000000, -0.000004
-24.000000, -0.000004
-23.500000, -0.866030
-23.000000, -1.732055
-22.500000, -2.598080
-22.000000, -3.464106
-21.500000, -4.330132
-21.000000, -5.196157
-20.500000, -6.062182
-20.000000, -6.928208
-20.000000, -6.928208
-21.000000, -6.928208
-21.000000, -6.928208
-20.500000, -7.794233
-20.500000, -7.794233
-21.500000, -7.794233
-21.500000, -7.794233
-21.000000, -6.928208
-21.000000, -6.928208
-22.000000, -6.928208
-22.000000, -6.928208
-21.500000, -7.794233
-21.000000, -8.660259
-21.000000, -8.660259
-22.000000, -8.660259
-22.000000, -8.660259
-21.500000, -9.526285
-21.500000, -9.526285
-22.500000, -9.526285
-22.500000, -9.526285
-22.000000, -8.660259
-22.000000, -8.660259
-23.000000, -8.660259
-23.000000, -8.660259
-22.500000, -7.794234
-22.000000, -6.928208
-22.000000, -6.928208
-23.000000, -6.928208
-23.000000, -6.928208
-22.500000, -7.794234
-22.500000, -7.794234
-23.500000, -7.794234
-23.500000, -7.794234
-23.000000, -6.928208
-23.000000, -6.928208
-24.000000, -6.928208
-24.000000, -6.928208
-23.500000, -7.794234
-23.000000, -8.660259
-22.500000, -9.526285
-22.000000,-10.392311
-22.000000,-10.392311
-23.000000,-10.392311
-23.000000,-10.392311
-22.500000,-11.258337
-22.500000,-11.258337
-23.500000,-11.258337
-23.500000,-11.258337
-23.000000,-10.392311
-23.000000,-10.392311
-24.000000,-10.392311
-24.000000,-10.392311
-23.500000,-11.258337
-23.000000,-12.124363
-23.000000,-12.124363
-24.000000,-12.124363
-24.000000,-12.124363
-23.500000,-12.990389
-23.500000,-12.990389
-24.500000,-12.990389
-24.500000,-12.990389
-24.000000,-12.124363
-24.000000,-12.124363
-25.000000,-12.124363
-25.000000,-12.124363
-24.500000,-11.258337
-24.000000,-10.392311
-24.000000,-10.392311
-25.000000,-10.392311
-25.000000,-10.392311
-24.500000,-11.258337
-24.500000,-11.258337
-25.500000,-11.258337
-25.500000,-11.258337
-25.000000,-10.392311
-25.000000,-10.392311
-26.000000,-10.392311
-26.000000,-10.392311
-25.500000, -9.526285
-25.000000, -8.660259
-24.500000, -7.794234
-24.000000, -6.928208
-24.000000, -6.928208
-25.000000, -6.928208
-25.000000, -6.928208
-24.500000, -7.794234
-24.500000, -7.794234
-25.500000, -7.794234
-25.500000, -7.794234
-25.000000, -6.928208
-25.000000, -6.928208
-26.000000, -6.928208
-26.000000, -6.928208
-25.500000, -7.794234
-25.000000, -8.660259
-25.000000, -8.660259
-26.000000, -8.660259
-26.000000, -8.660259
-25.500000, -9.526285
-25.500000, -9.526285
-26.500000, -9.526285
-26.500000, -9.526285
-26.000000, -8.660259
-26.000000, -8.660259
-27.000000, -8.660259
-27.000000, -8.660259
-26.500000, -7.794234
-26.000000, -6.928208
-26.000000, -6.928208
-27.000000, -6.928208
-27.000000, -6.928208
-26.500000, -7.794234
-26.500000, -7.794234
-27.500000, -7.794234
-27.500000, -7.794234
-27.000000, -6.928208
-27.000000, -6.928208
-28.000000, -6.928208
-28.000000, -6.928208
-27.500000, -6.062183
-27.000000, -5.196158
-26.500000, -4.330132
-26.000000, -3.464107
-25.500000, -2.598081
-25.000000, -1.732056
-24.500000, -0.866030
-24.000000, -0.000005
-24.000000, -0.000005
-25.000000, -0.000005
-25.000000, -0.000005
-24.500000, -0.866030
-24.500000, -0.866030
-25.500000, -0.866030
-25.500000, -0.866030
-25.000000, -0.000005
-25.000000, -0.000005
-26.000000, -0.000005
-26.000000, -0.000005
-25.500000, -0.866030
-25.000000, -1.732056
-25.000000, -1.732056
-26.000000, -1.732056
-26.000000, -1.732056
-25.500000, -2.598082
-25.500000, -2.598082
-26.500000, -2.598082
-26.500000, -2.598082
-26.000000, -1.732056
-26.000000, -1.732056
-27.000000, -1.732056
-27.000000, -1.732056
-26.500000, -0.866031
-26.000000, -0.000005
-26.000000, -0.000005
-27.000000, -0.000005
-27.000000, -0.000005
-26.500000, -0.866031
-26.500000, -0.866031
-27.500000, -0.866031
-27.500000, -0.866031
-27.000000, -0.000005
-27.000000, -0.000005
-28.000000, -0.000006
-28.000000, -0.000006
-27.500000, -0.866031
-27.000000, -1.732056
-26.500000, -2.598082
-26.000000, -3.464107
-26.000000, -3.464107
-27.000000, -3.464107
-27.000000, -3.464107
-26.500000, -4.330132
-26.500000, -4.330132
-27.500000, -4.330132
-27.500000, -4.330132
-27.000000, -3.464107
-27.000000, -3.464107
-28.000000, -3.464107
-28.000000, -3.464107
-27.500000, -4.330132
-27.000000, -5.196158
-27.000000, -5.196158
-28.000000, -5.196158
-28.000000, -5.196158
-27.500000, -6.062183
-27.500000, -6.062183
-28.500000, -6.062183
-28.500000, -6.062183
-28.000000, -5.196158
-28.000000, -5.196158
-29.000000, -5.196158
-29.000000, -5.196158
-28.500000, -4.330132
-28.000000, -3.464107
-28.000000, -3.464107
-29.000000, -3.464107
-29.000000, -3.464107
-28.500000, -4.330132
-28.500000, -4.330132
-29.500000, -4.330132
-29.500000, -4.330132
-29.000000, -3.464107
-29.000000, -3.464107
-30.000000, -3.464107
-30.000000, -3.464107
-29.500000, -2.598082
-29.000000, -1.732056
-28.500000, -0.866031
-28.000000, -0.000005
-28.000000, -0.000005
-29.000000, -0.000005
-29.000000, -0.000005
-28.500000, -0.866031
-28.500000, -0.866031
-29.500000, -0.866031
-29.500000, -0.866031
-29.000000, -0.000005
-29.000000, -0.000005
-30.000000, -0.000005
-30.000000, -0.000005
-29.500000, -0.866031
-29.000000, -1.732056
-29.000000, -1.732056
-30.000000, -1.732056
-30.000000, -1.732056
-29.500000, -2.598082
-29.500000, -2.598082
-30.500000, -2.598082
-30.500000, -2.598082
-30.000000, -1.732057
-30.000000, -1.732057
-31.000000, -1.732057
-31.000000, -1.732057
-30.500000, -0.866031
-30.000000, -0.000006
-30.000000, -0.000006
-31.000000, -0.000006
-31.000000, -0.000006
-30.500000, -0.866031
-30.500000, -0.866031
-31.500000, -0.866031
-31.500000, -0.866031
-31.000000, -0.000006
-31.000000, -0.000006
-32.000000, -0.000006
-32.000000, -0.000006
-31.500000, -0.866031
-31.000000, -1.732057
-30.500000, -2.598082
-30.000000, -3.464108
-29.500000, -4.330133
-29.000000, -5.196159
-28.500000, -6.062184
-28.000000, -6.928210
-27.500000, -7.794235
-27.000000, -8.660261
-26.500000, -9.526287
-26.000000,-10.392313
-25.500000,-11.258339
-25.000000,-12.124365
-24.500000,-12.990391
-24.000000,-13.856417
-23.500000,-14.722443
-23.000000,-15.588469
-22.500000,-16.454494
-22.000000,-17.320520
-21.500000,-18.186546
-21.000000,-19.052572
-20.500000,-19.918598
-20.000000,-20.784624
-19.500000,-21.650650
-19.000000,-22.516676
-18.500000,-23.382702
-18.000000,-24.248728
-17.500000,-25.114754
-17.000000,-25.980780
-16.500000,-26.846806
-16.000000,-27.712831
-16.000000,-27.712831
-15.500000,-26.846806
-15.000000,-25.980780
-14.500000,-25.114754
-14.000000,-24.248728
-13.500000,-23.382702
-13.000000,-22.516676
-12.500000,-21.650650
-12.000000,-20.784624
-11.500000,-19.918598
-11.000000,-19.052572
-10.500000,-18.186546
-10.000000,-17.320520
 -9.500000,-16.454494
 -9.000000,-15.588470
 -8.500000,-14.722445
 -8.000000,-13.856420
 -7.500000,-12.990395
 -7.000000,-12.124370
 -6.500000,-11.258345
 -6.000000,-10.392320
 -5.500000, -9.526295
 -5.000000, -8.660270
 -4.500000, -7.794244
 -4.000000, -6.928219
 -3.500000, -6.062193
 -3.000000, -5.196168
 -2.500000, -4.330142
 -2.000000, -3.464117
 -1.500000, -2.598092
 -1.000000, -1.732066
 -0.500000, -0.866041
 "
/>
</svg>
