<svg xmlns="http://www.w3.org/2000/svg"
 viewBox="-2.0 -71.28201 44.0 73.28201"
>
<polyline
 fill="none" stroke="green" stroke-width="0.25%"
 points="
  0.000000,  0.000000
  0.500000, -0.866025
  0.500000, -0.866025
  0.000000, -1.732051
  0.000000, -1.732051
  0.000000, -1.732051
  1.000000, -1.732051
  1.000000, -1.732051
  1.500000, -2.598076
  1.500000, -2.598076
  1.000000, -3.464102
  1.000000, -3.464102
  0.000000, -3.464102
  0.000000, -3.464102
  0.000000, -3.464102
  0.500000, -4.330127
  0.500000, -4.330127
  0.000000, -5.196153
  0.000000, -5.196153
  0.000000, -5.196153
  1.000000, -5.196153
  1.000000, -5.196153
  1.500000, -6.062178
  1.500000, -6.062178
  1.500000, -6.062178
  2.000000, -5.196153
  2.000000, -5.196153
  3.000000, -5.196153
  3.000000, -5.196153
  3.500000, -6.062178
  3.500000, -6.062178
  3.000000, -6.928204
  3.000000, -6.928204
  3.000000, -6.928204
  4.000000, -6.928204
  4.000000, -6.928204
  4.500000, -7.794229
  4.500000, -7.794229
  4.000000, -8.660254
  4.000000, -8.660254
  3.000000, -8.660254
  3.000000, -8.660254
  3.000000, -8.660254
  3.500000, -9.526279
  3.500000, -9.526279
  3.000000,-10.392305
  3.000000,-10.392305
  2.000000,-10.392305
  2.000000,-10.392305
  1.500000, -9.526280
  1.500000, -9.526280
  1.500000, -9.526280
  1.000000,-10.392305
  1.000000,-10.392305
  0.000000,-10.392305
  0.000000,-10.392305
  0.000000,-10.392305
  0.500000,-11.258331
  0.500000,-11.258331
  0.000000,-12.124357
  0.000000,-12.124357
  0.000000,-12.124357
  1.000000,-12.124357
  1.000000,-12.124357
  1.500000,-12.990383
  1.500000,-12.990383
  1.000000,-13.856409
  1.000000,-13.856409
  0.000000,-13.856409
  0.000000,-13.856409
  0.000000,-13.856409
  0.500000,-14.722435
  0.500000,-14.722435
  0.000000,-15.588461
  0.000000,-15.588461
  0.000000,-15.588461
  1.000000,-15.588461
  1.000000,-15.588461
  1.500000,-16.454487
  1.500000,-16.454487
  1.500000,-16.454487
  2.000000,-15.588462
  2.000000,-15.588462
  3.000000,-15.588462
  3.000000,-15.588462
  3.500000,-16.454487
  3.500000,-16.454487
  3.000000,-17.320513
  3.000000,-17.320513
  3.000000,-17.320513
  4.000000,-17.320513
  4.000000,-17.320513
  4.500000,-18.186539
  4.500000,-18.186539
  4.500000,-18.186539
  5.000000,-17.320513
  5.000000,-17.320513
  6.000000,-17.320513
  6.000000,-17.320513
  6.000000,-17.320513
  5.500000,-16.454487
  5.500000,-16.454487
  6.000000,-15.588462
  6.000000,-15.588462
  7.000000,-15.588462
  7.000000,-15.588462
  7.500000,-16.454487
  7.500000,-16.454487
  7.500000,-16.454487
  8.000000,-15.588462
  8.000000,-15.588462
  9.000000,-15.588462
  9.000000,-15.588462
  9.500000,-16.454487
  9.500000,-16.454487
  9.000000,-17.320513
  9.000000,-17.320513
  9.000000,-17.320513
 10.000000,-17.320513
 10.000000,-17.320513
 10.500000,-18.186539
 10.500000,-18.186539
 10.000000,-19.052565
 10.000000,-19.052565
  9.000000,-19.052565
  9.000000,-19.052565
  9.000000,-19.052565
  9.500000,-19.918590
  9.500000,-19.918590
  9.000000,-20.784616
  9.000000,-20.784616
  9.000000,-20.784616
 10.000000,-20.784616
 10.000000,-20.784616
 10.500000,-21.650642
 10.500000,-21.650642
 10.500000,-21.650642
 11.000000,-20.784616
 11.000000,-20.784616
 12.000000,-20.784616
 12.000000,-20.784616
 12.500000,-21.650642
 12.500000,-21.650642
 12.000000,-22.516668
 12.000000,-22.516668
 12.000000,-22.516668
 13.000000,-22.516668
 13.000000,-22.516668
 13.500000,-23.382694
 13.500000,-23.382694
 13.000000,-24.248720
 13.000000,-24.248720
 12.000000,-24.248720
 12.000000,-24.248720
 12.000000,-24.248720
 12.500000,-25.114746
 12.500000,-25.114746
 12.000000,-25.980772
 12.000000,-25.980772
 11.000000,-25.980772
 11.000000,-25.980772
 10.500000,-25.114746
 10.500000,-25.114746
 10.500000,-25.114746
 10.000000,-25.980772
 10.000000,-25.980772
  9.000000,-25.980772
  9.000000,-25.980772
  9.000000,-25.980772
  9.500000,-26.846798
  9.500000,-26.846798
  9.000000,-27.712824
  9.000000,-27.712824
  9.000000,-27.712824
 10.000000,-27.712824
 10.000000,-27.712824
 10.500000,-28.578850
 10.500000,-28.578850
 10.000000,-29.444876
 10.000000,-29.444876
  9.000000,-29.444876
  9.000000,-29.444876
  9.000000,-29.444876
  9.500000,-30.310902
  9.500000,-30.310902
  9.000000,-31.176928
  9.000000,-31.176928
  8.000000,-31.176928
  8.000000,-31.176928
  7.500000,-30.310902
  7.500000,-30.310902
  7.500000,-30.310902
  7.000000,-31.176928
  7.000000,-31.176928
  6.000000,-31.176928
  6.000000,-31.176928
  5.500000,-30.310902
  5.500000,-30.310902
  6.000000,-29.444876
  6.000000,-29.444876
  6.000000,-29.444876
  5.000000,-29.444876
  5.000000,-29.444876
  4.500000,-28.578850
  4.500000,-28.578850
  4.500000,-28.578850
  4.000000,-29.444876
  4.000000,-29.444876
  3.000000,-29.444876
  3.000000,-29.444876
  3.000000,-29.444876
  3.500000,-30.310902
  3.500000,-30.310902
  3.000000,-31.176928
  3.000000,-31.176928
  2.000000,-31.176928
  2.000000,-31.176928
  1.500000,-30.310902
  1.500000,-30.310902
  1.500000,-30.310902
  1.000000,-31.176928
  1.000000,-31.176928
  0.000000,-31.176928
  0.000000,-31.176928
  0.000000,-31.176928
  0.500000,-32.042953
  0.500000,-32.042953
  0.000000,-32.908978
  0.000000,-32.908978
  0.000000,-32.908978
  1.000000,-32.908978
  1.000000,-32.908978
  1.500000,-33.775000
  1.500000,-33.775000
  1.000000,-34.641026
  1.000000,-34.641026
  0.000000,-34.641026
  0.000000,-34.641026
  0.000000,-34.641026
  0.500000,-35.507050
  0.500000,-35.507050
  0.000000,-36.373074
  0.000000,-36.373074
  0.000000,-36.373074
  1.000000,-36.373074
  1.000000,-36.373074
  1.500000,-37.239098
  1.500000,-37.239098
  1.500000,-37.239098
  2.000000,-36.373074
  2.000000,-36.373074
  3.000000,-36.373074
  3.000000,-36.373074
  3.500000,-37.239098
  3.500000,-37.239098
  3.000000,-38.105120
  3.000000,-38.105120
  3.000000,-38.105120
  4.000000,-38.105120
  4.000000,-38.105120
  4.500000,-38.971146
  4.500000,-38.971146
  4.000000,-39.837170
  4.000000,-39.837170
  3.000000,-39.837170
  3.000000,-39.837170
  3.000000,-39.837170
  3.500000,-40.703194
  3.500000,-40.703194
  3.000000,-41.569218
  3.000000,-41.569218
  2.000000,-41.569218
  2.000000,-41.569218
  1.500000,-40.703194
  1.500000,-40.703194
  1.500000,-40.703194
  1.000000,-41.569218
  1.000000,-41.569218
  0.000000,-41.569218
  0.000000,-41.569218
  0.000000,-41.569218
  0.500000,-42.435240
  0.500000,-42.435240
  0.000000,-43.301266
  0.000000,-43.301266
  0.000000,-43.301266
  1.000000,-43.301266
  1.000000,-43.301266
  1.500000,-44.167290
  1.500000,-44.167290
  1.000000,-45.033314
  1.000000,-45.033314
  0.000000,-45.033314
  0.000000,-45.033314
  0.000000,-45.033314
  0.500000,-45.899338
  0.500000,-45.899338
  0.000000,-46.765360
  0.000000,-46.765360
  0.000000,-46.765360
  1.000000,-46.765360
  1.000000,-46.765360
  1.500000,-47.631386
  1.500000,-47.631386
  1.500000,-47.631386
  2.000000,-46.765360
  2.000000,-46.765360
  3.000000,-46.765360
  3.000000,-46.765360
  3.500000,-47.631386
  3.500000,-47.631386
  3.000000,-48.497410
  3.000000,-48.497410
  3.000000,-48.497410
  4.000000,-48.497410
  4.000000,-48.497410
  4.500000,-49.363434
  4.500000,-49.363434
  4.500000,-49.363434
  5.000000,-48.497410
  5.000000,-48.497410
  6.000000,-48.497410
  6.000000,-48.497410
  6.000000,-48.497410
  5.500000,-47.631386
  5.500000,-47.631386
  6.000000,-46.765360
  6.000000,-46.765360
  7.000000,-46.765360
  7.000000,-46.765360
  7.500000,-47.631386
  7.500000,-47.631386
  7.500000,-47.631386
  8.000000,-46.765360
  8.000000,-46.765360
  9.000000,-46.765360
  9.000000,-46.765360
  9.500000,-47.631386
  9.500000,-47.631386
  9.000000,-48.497410
  9.000000,-48.497410
  9.000000,-48.497410
 10.000000,-48.497410
 10.000000,-48.497410
 10.500000,-49.363434
 10.500000,-49.363434
 10.000000,-50.229458
 10.000000,-50.229458
  9.000000,-50.229458
  9.000000,-50.229458
  9.000000,-50.229458
  9.500000,-51.095480
  9.500000,-51.095480
  9.000000,-51.961506
  9.000000,-51.961506
  9.000000,-51.961506
 10.000000,-51.961506
 10.000000,-51.961506
 10.500000,-52.827530
 10.500000,-52.827530
 10.500000,-52.827530
 11.000000,-51.961506
 11.000000,-51.961506
 12.000000,-51.961506
 12.000000,-51.961506
 12.500000,-52.827530
 12.500000,-52.827530
 12.000000,-53.693554
 12.000000,-53.693554
 12.000000,-53.693554
 13.000000,-53.693554
 13.000000,-53.693554
 13.500000,-54.559578
 13.500000,-54.559578
 13.500000,-54.559578
 14.000000,-53.693554
 14.000000,-53.693554
 15.000000,-53.693554
 15.000000,-53.693554
 15.000000,-53.693554
 14.500000,-52.827530
 14.500000,-52.827530
 15.000000,-51.961506
 15.000000,-51.961506
 16.000000,-51.961506
 16.000000,-51.961506
 16.500000,-52.827530
 16.500000,-52.827530
 16.500000,-52.827530
 17.000000,-51.961506
 17.000000,-51.961506
 18.000000,-51.961506
 18.000000,-51.961506
 18.000000,-51.961506
 17.500000,-51.095480
 17.500000,-51.095480
 18.000000,-50.229458
 18.000000,-50.229458
 18.000000,-50.229458
 17.000000,-50.229458
 17.000000,-50.229458
 16.500000,-49.363434
 16.500000,-49.363434
 17.000000,-48.497410
 17.000000,-48.497410
 18.000000,-48.497410
 18.000000,-48.497410
 18.000000,-48.497410
 17.500000,-47.631386
 17.500000,-47.631386
 18.000000,-46.765360
 18.000000,-46.765360
 19.000000,-46.765360
 19.000000,-46.765360
 19.500000,-47.631386
 19.500000,-47.631386
 19.500000,-47.631386
 20.000000,-46.765360
 20.000000,-46.765360
 21.000000,-46.765360
 21.000000,-46.765360
 21.500000,-47.631386
 21.500000,-47.631386
 21.000000,-48.497410
 21.000000,-48.497410
 21.000000,-48.497410
 22.000000,-48.497410
 22.000000,-48.497410
 22.500000,-49.363434
 22.500000,-49.363434
 22.500000,-49.363434
 23.000000,-48.497410
 23.000000,-48.497410
 24.000000,-48.497410
 24.000000,-48.497410
 24.000000,-48.497410
 23.500000,-47.631386
 23.500000,-47.631386
 24.000000,-46.765360
 24.000000,-46.765360
 25.000000,-46.765360
 25.000000,-46.765360
 25.500000,-47.631386
 25.500000,-47.631386
 25.500000,-47.631386
 26.000000,-46.765360
 26.000000,-46.765360
 27.000000,-46.765360
 27.000000,-46.765360
 27.500000,-47.631386
 27.500000,-47.631386
 27.000000,-48.497410
 27.000000,-48.497410
 27.000000,-48.497410
 28.000000,-48.497410
 28.000000,-48.497410
 28.500000,-49.363434
 28.500000,-49.363434
 28.000000,-50.229458
 28.000000,-50.229458
 27.000000,-50.229458
 27.000000,-50.229458
 27.000000,-50.229458
 27.500000,-51.095480
 27.500000,-51.095480
 27.000000,-51.961506
 27.000000,-51.961506
 27.000000,-51.961506
 28.000000,-51.961506
 28.000000,-51.961506
 28.500000,-52.827530
 28.500000,-52.827530
 28.500000,-52.827530
 29.000000,-51.961506
 29.000000,-51.961506
 30.000000,-51.961506
 30.000000,-51.961506
 30.500000,-52.827530
 30.500000,-52.827530
 30.000000,-53.693554
 30.000000,-53.693554
 30.000000,-53.693554
 31.000000,-53.693554
 31.000000,-53.693554
 31.500000,-54.559578
 31.500000,-54.559578
 31.000000,-55.425602
 31.000000,-55.425602
 30.000000,-55.425602
 30.000000,-55.425602
 30.000000,-55.425602
 30.500000,-56.291626
 30.500000,-56.291626
 30.000000,-57.157650
 30.000000,-57.157650
 29.000000,-57.157650
 29.000000,-57.157650
 28.500000,-56.291626
 28.500000,-56.291626
 28.500000,-56.291626
 28.000000,-57.157650
 28.000000,-57.157650
 27.000000,-57.157650
 27.000000,-57.157650
 27.000000,-57.157650
 27.500000,-58.023674
 27.500000,-58.023674
 27.000000,-58.889698
 27.000000,-58.889698
 27.000000,-58.889698
 28.000000,-58.889698
 28.000000,-58.889698
 28.500000,-59.755722
 28.500000,-59.755722
 28.000000,-60.621746
 28.000000,-60.621746
 27.000000,-60.621746
 27.000000,-60.621746
 27.000000,-60.621746
 27.500000,-61.487770
 27.500000,-61.487770
 27.000000,-62.353794
 27.000000,-62.353794
 27.000000,-62.353794
 28.000000,-62.353794
 28.000000,-62.353794
 28.500000,-63.219820
 28.500000,-63.219820
 28.500000,-63.219820
 29.000000,-62.353794
 29.000000,-62.353794
 30.000000,-62.353794
 30.000000,-62.353794
 30.500000,-63.219820
 30.500000,-63.219820
 30.000000,-64.085846
 30.000000,-64.085846
 30.000000,-64.085846
 31.000000,-64.085846
 31.000000,-64.085846
 31.500000,-64.951870
 31.500000,-64.951870
 31.500000,-64.951870
 32.000000,-64.085846
 32.000000,-64.085846
 33.000000,-64.085846
 33.000000,-64.085846
 33.000000,-64.085846
 32.500000,-63.219822
 32.500000,-63.219822
 33.000000,-62.353798
 33.000000,-62.353798
 34.000000,-62.353798
 34.000000,-62.353798
 34.500000,-63.219822
 34.500000,-63.219822
 34.500000,-63.219822
 35.000000,-62.353798
 35.000000,-62.353798
 36.000000,-62.353798
 36.000000,-62.353798
 36.500000,-63.219822
 36.500000,-63.219822
 36.000000,-64.085846
 36.000000,-64.085846
 36.000000,-64.085846
 37.000000,-64.085846
 37.000000,-64.085846
 37.500000,-64.951870
 37.500000,-64.951870
 37.000000,-65.817900
 37.000000,-65.817900
 36.000000,-65.817900
 36.000000,-65.817900
 36.000000,-65.817900
 36.500000,-66.683930
 36.500000,-66.683930
 36.000000,-67.549960
 36.000000,-67.549960
 36.000000,-67.549960
 37.000000,-67.549960
 37.000000,-67.549960
 37.500000,-68.415985
 37.500000,-68.415985
 37.500000,-68.415985
 38.000000,-67.549960
 38.000000,-67.549960
 39.000000,-67.549960
 39.000000,-67.549960
 39.500000,-68.415985
 39.500000,-68.415985
 39.000000,-69.282010
 39.000000,-69.282010
 39.000000,-69.282010
 40.000000,-69.282010
 40.000000,-69.282010
 "
/>
</svg>
